<?xml version="1.0" encoding="UTF-8"?>
<!DOCTYPE svg PUBLIC "-//W3C//DTD SVG 1.1//EN" "http://www.w3.org/Graphics/SVG/1.1/DTD/svg11.dtd">
<!-- Creator: CorelDRAW -->
<svg xmlns="http://www.w3.org/2000/svg" xml:space="preserve" width="16.5545in" height="3.40681in" version="1.1" style="shape-rendering:geometricPrecision; text-rendering:geometricPrecision; image-rendering:optimizeQuality; fill-rule:evenodd; clip-rule:evenodd"
viewBox="0 0 27495.83 5658.47"
 xmlns:xlink="http://www.w3.org/1999/xlink"
 xmlns:xodm="http://www.corel.com/coreldraw/odm/2003">
 <defs>
  <style type="text/css">
   <![CDATA[
    .fil0 {fill:#5F15FF}
    .fil1 {fill:black;fill-rule:nonzero}
   ]]>
  </style>
 </defs>
 <g id="Layer_x0020_1">
  <metadata id="CorelCorpID_0Corel-Layer"/>
  <polygon class="fil0" points="5658.47,0 4443.31,0 3507.74,0 2231.83,0 1296.26,0 -0,0 -0,911.49 935.57,1845.7 935.57,834.11 1296.26,834.11 2231.83,834.11 3507.74,834.11 4443.31,834.11 5658.47,834.11 "/>
  <polygon class="fil0" points="2231.83,4823.18 2231.83,2648.89 2231.83,1814.77 1296.26,1814.77 1296.26,4823.18 1296.26,5658.47 2231.83,5658.47 2231.83,5657.3 3383.45,5657.3 3383.45,4823.18 "/>
  <polygon class="fil0" points="3507.74,2648.89 3507.74,4823.18 4443.31,4430.37 4443.31,2648.89 5658.47,2648.89 6594.04,2648.89 6594.04,1814.77 6594.04,1336.99 5658.47,834.11 5658.47,1814.77 4443.31,1814.77 3507.74,1814.77 "/>
  <polygon class="fil1" points="9722.68,4154.68 9722.68,2598.44 9131.93,2598.44 9131.93,2232.44 10701.34,2232.44 10701.34,2598.44 10108.06,2598.44 10108.06,4154.68 "/>
  <path id="_1" class="fil1" d="M10702.19 4154.68l0 -1435.2 385.38 0 0 245.93c56.2,-111.44 117.05,-186.36 183.39,-224.79 65.92,-38.42 165.23,-58.11 298.33,-58.11l0 409.71c-42.26,-10.08 -78.6,-15.37 -109.02,-15.37 -106.49,0 -193.12,27.86 -259.88,84.54 -40.57,33.62 -69.31,74.45 -86.63,122 -17.33,48.03 -26.2,110.96 -26.2,188.76l0 682.54 -385.38 0z"/>
  <path id="_2" class="fil1" d="M12163 3189.24l-402.28 0c4.22,-73.01 16.05,-133.53 35.91,-181.56 43.52,-108.56 122.12,-193.09 235.79,-253.13 113.25,-60.04 250.16,-89.82 410.31,-89.82 197.34,0 355.37,36.99 474.12,110.96 74.38,46.11 125.92,103.75 154.24,172.91 28.31,69.65 42.68,171.95 42.68,306.93l0 596.55c0,80.69 2.96,138.81 9.29,173.87 5.92,35.07 18.17,62.93 36.34,83.58l0 45.15 -388.34 0 -33.8 -169.07c-58.32,62.93 -117.06,109.99 -175.79,140.73 -104.8,55.24 -225.65,83.1 -362.56,83.1 -147.06,0 -266.64,-34.59 -359.19,-103.75 -47.75,-36.02 -85.35,-84.06 -112.4,-144.1 -27.47,-60.53 -40.99,-125.84 -40.99,-195.97 0,-133.05 40.99,-237.76 122.54,-313.65 62.96,-58.12 156.77,-98.47 281.43,-122 14.79,-2.88 123.39,-18.25 325.8,-46.59 130.57,-17.77 215.52,-36.02 255.23,-55.24 39.72,-19.21 59.58,-51.87 59.58,-97.99 0,-50.43 -23.66,-89.82 -71.41,-117.68 -47.33,-28.34 -113.68,-42.27 -199.03,-42.27 -96.77,0 -172.41,19.7 -226.92,58.6 -36.34,25.93 -60,79.73 -70.57,160.42zm563.28 274.26c-38.04,22.57 -73.53,37.95 -106.07,46.59 -32.54,8.17 -108.59,21.62 -227.76,40.35 -98.46,15.85 -168.6,33.15 -210.02,51.87 -60.43,28.34 -90.43,75.42 -90.43,141.7 0,50.44 19.02,89.82 57.05,117.68 38.46,28.34 91.7,42.27 160.58,42.27 61.27,0 122.54,-12.01 184.66,-35.54 61.7,-24.02 114.52,-56.68 158.46,-97.5 50.29,-47.55 75.64,-127.77 75.64,-239.68l-0.84 -40.82 -1.27 -26.9z"/>
  <path id="_3" class="fil1" d="M13427.32 4154.68l0 -1435.2 385.38 0 0 239.2c57.05,-83.09 108.18,-141.21 154.66,-175.31 88.74,-67.73 201.14,-101.35 336.36,-101.35 114.51,0 214.24,24.98 299.18,74.45 117.05,68.69 184.66,171 202.83,307.41 5.49,40.35 8.46,106.63 8.46,198.85l0 891.95 -387.92 0 0 -797.81c0,-110.47 -18.59,-189.24 -55.35,-236.32 -50.29,-63.88 -124.65,-95.58 -222.27,-95.58 -64.23,0 -123.39,15.85 -177.48,48.03 -53.67,31.7 -93.39,74.93 -119.16,129.21 -26.2,55.24 -39.3,133.53 -39.3,234.88l0 717.6 -385.38 0z"/>
  <path id="_4" class="fil1" d="M15037.72 3682.05l432.28 0c7.19,73.96 32.12,127.76 73.96,161.38 51.12,40.35 130.57,60.52 238.32,60.52 87.05,0 154.66,-13.45 202.83,-39.86 48.17,-26.9 72.26,-64.36 72.26,-111.92 0,-50.91 -25.78,-84.06 -77.76,-99.91 -27.89,-8.64 -137.33,-26.41 -329.18,-53.31 -130.15,-15.85 -212.98,-27.38 -248.89,-34.59 -35.92,-7.2 -77.76,-20.65 -125.5,-40.35 -70.99,-27.86 -127.19,-78.77 -169.45,-153.22 -32.11,-55.24 -48.17,-119.12 -48.17,-191.17 0,-74.93 16.9,-147.46 50.71,-216.63 33.8,-69.64 79.02,-124.88 136.07,-166.19 121.27,-87.9 286.08,-132.08 494.83,-132.08 250.16,0 440.73,61.48 571.73,183.96 74.38,69.17 112.83,169.07 116.21,300.2l-418.34 0c-8.87,-59.08 -30,-100.87 -62.96,-124.88 -51.13,-36.02 -127.2,-53.8 -227.77,-53.8 -159.72,0 -239.59,45.15 -239.59,134.97 0,33.62 9.72,57.64 29.16,71.56 19.43,13.93 59.58,26.42 120.44,36.51 86.62,14.89 226.91,33.14 421.29,54.76 138.6,15.85 240.87,57.16 306.78,123.92 75.64,77.33 113.67,176.76 113.67,297.8 0,103.75 -30,197.89 -90.43,282.43 -113.67,158.02 -318.19,237.28 -613.56,237.28 -258.19,0 -453,-59.56 -583.99,-178.68 -46.48,-41.31 -80.71,-88.38 -102.69,-142.17 -22.4,-53.32 -36.34,-122.01 -42.25,-206.54z"/>
  <path id="_5" class="fil1" d="M18193.87 4154.68l-385.38 0 0 -171.47c-73.53,83.1 -145.36,141.7 -215.93,175.8 -70.57,33.62 -157.19,50.44 -260.3,50.44 -213.4,0 -385.37,-77.82 -515.95,-233.92 -57.47,-68.21 -102.26,-150.34 -133.96,-245.44 -31.69,-95.1 -47.75,-193.57 -47.75,-294.92 0,-216.62 66.76,-397.7 200.29,-543.24 128.04,-139.77 292.85,-209.9 494.83,-209.9 103.1,0 191,17.29 264.1,52.36 73.11,34.58 144.51,93.66 214.67,176.27l0 -678.21 385.38 0 0 1922.24zm-785.13 -1141.24c-115.36,0 -209.59,41.79 -282.7,125.36 -70.57,81.66 -106.06,184.93 -106.06,309.81 0,124.88 35.49,228.16 106.06,309.81 72.68,83.58 166.91,125.36 283.97,125.36 118.32,0 215.08,-40.82 289.88,-122.48 75.64,-82.61 113.67,-184.92 113.67,-306.92 0,-131.61 -38.03,-237.76 -113.67,-318.45 -75.64,-80.69 -172.83,-121.52 -291.15,-122.48z"/>
  <path id="_6" class="fil1" d="M19893.43 2719.48l0 1435.2 -385.38 0 0 -239.2c-57.05,81.65 -108.18,140.26 -154.66,174.84 -88.74,67.73 -201.14,101.83 -336.36,101.83 -114.52,0 -214.24,-24.97 -299.18,-74.92 -115.36,-67.25 -182.98,-167.64 -202.84,-299.72 -5.49,-41.79 -8.45,-109.99 -8.45,-206.06l0 -891.96 387.91 0 0 797.81c0,107.59 16.9,184.44 50.71,230.56 50.29,67.73 125.5,101.34 225.65,101.34 114.51,0 203.68,-42.26 267.91,-126.8 46.06,-61.96 69.3,-157.07 69.3,-285.31l0 -717.6 385.38 0z"/>
  <path id="_7" class="fil1" d="M21294.24 3630.17l391.3 0c-19.02,88.38 -42.26,159.46 -69.3,212.78 -64.23,126.8 -164.8,221.43 -300.86,283.38 -120.44,55.24 -251.01,83.1 -391.3,83.1 -191.43,0 -352.84,-47.55 -484.27,-142.18 -94.65,-69.16 -168.6,-160.91 -221.43,-274.26 -50.29,-109.03 -75.64,-227.67 -75.64,-355.92 0,-167.15 42.26,-316.05 126.35,-447.18 139.45,-216.63 360.03,-325.18 661.32,-325.18 260.72,0 461.86,83.09 603,249.28 46.06,54.27 80.71,109.52 103.1,165.71 22.82,55.71 39.31,125.84 49.02,210.38l-391.3 0c-29.58,-213.26 -145.79,-319.89 -348.19,-319.89 -118.74,0 -213.4,40.35 -283.54,121.04 -74.38,85.49 -111.56,201.73 -111.56,349.19 0,141.22 35.92,253.61 107.75,338.15 73.53,85.5 170.29,128.24 289.88,128.24 87.47,0 161,-23.53 220.58,-71.09 59.58,-47.55 101.42,-116.24 125.08,-205.58z"/>
  <path id="_8" class="fil1" d="M21958.94 3033.61l-200.29 0 0 -314.13 200.29 0 0 -415 382.85 0 0 415 299.18 0 0 314.13 -299.18 0 0 574.94c0,84.54 10.14,139.3 30.84,164.75 20.7,25.46 65.5,37.95 135.22,37.95l132.26 0 0 343.43 -216.35 0c-96.35,0 -171.57,-7.21 -225.23,-21.13 -53.24,-13.93 -99.73,-38.91 -139.45,-74.45 -42.25,-38.91 -69.29,-83.58 -81.55,-135.45 -12.26,-51.4 -18.6,-146.5 -18.6,-284.35l0 -605.68z"/>
  <polygon id="_9" class="fil1" points="23543.14,4154.68 23543.14,2232.44 23928.53,2232.44 23928.53,3788.67 24881.84,3788.67 24881.84,4154.68 "/>
  <path id="_10" class="fil1" d="M25107.06 3033.61l-200.29 0 0 -314.13 200.29 0 0 -415 382.84 0 0 415 299.18 0 0 314.13 -299.18 0 0 574.94c0,84.54 10.14,139.3 30.85,164.75 20.7,25.46 65.5,37.95 135.22,37.95l132.26 0 0 343.43 -216.35 0c-96.35,0 -171.57,-7.21 -225.23,-21.13 -53.25,-13.93 -99.73,-38.91 -139.45,-74.45 -42.26,-38.91 -69.3,-83.58 -81.55,-135.45 -12.26,-51.4 -18.6,-146.5 -18.6,-284.35l0 -605.68z"/>
  <path id="_11" class="fil1" d="M27495.83 4154.68l-385.37 0 0 -171.47c-73.53,83.1 -145.36,141.7 -215.93,175.8 -70.57,33.62 -157.2,50.44 -260.31,50.44 -213.39,0 -385.37,-77.82 -515.95,-233.92 -57.47,-68.21 -102.26,-150.34 -133.95,-245.44 -31.69,-95.1 -47.75,-193.57 -47.75,-294.92 0,-216.62 66.77,-397.7 200.3,-543.24 128.04,-139.77 292.84,-209.9 494.83,-209.9 103.1,0 191,17.29 264.1,52.36 73.11,34.58 144.52,93.66 214.67,176.27l0 -678.21 385.37 0 0 1922.24zm-785.12 -1141.24c-115.36,0 -209.6,41.79 -282.7,125.36 -70.57,81.66 -106.06,184.93 -106.06,309.81 0,124.88 35.49,228.16 106.06,309.81 72.68,83.58 166.92,125.36 283.97,125.36 118.32,0 215.09,-40.82 289.88,-122.48 75.64,-82.61 113.67,-184.92 113.67,-306.92 0,-131.61 -38.03,-237.76 -113.67,-318.45 -75.64,-80.69 -172.83,-121.52 -291.15,-122.48z"/>
 </g>
</svg>
