<?xml version="1.0" encoding="UTF-8"?>
<!DOCTYPE svg PUBLIC "-//W3C//DTD SVG 1.1//EN" "http://www.w3.org/Graphics/SVG/1.1/DTD/svg11.dtd">
<!-- Creator: CorelDRAW -->
<svg xmlns="http://www.w3.org/2000/svg" xml:space="preserve" width="3.97009in" height="3.40681in" version="1.1" style="shape-rendering:geometricPrecision; text-rendering:geometricPrecision; image-rendering:optimizeQuality; fill-rule:evenodd; clip-rule:evenodd"
viewBox="0 0 1581.38 1357.01"
 xmlns:xlink="http://www.w3.org/1999/xlink"
 xmlns:xodm="http://www.corel.com/coreldraw/odm/2003">
 <defs>
  <style type="text/css">
   <![CDATA[
    .fil0 {fill:#5F15FF}
   ]]>
  </style>
 </defs>
 <g id="Layer_x0020_1">
  <metadata id="CorelCorpID_0Corel-Layer"/>
  <polygon class="fil0" points="1357.01,0 1065.59,0 841.23,0 535.24,0 310.87,0 -0,0 -0,218.59 224.37,442.64 224.37,200.04 310.87,200.04 535.24,200.04 841.23,200.04 1065.59,200.04 1357.01,200.04 "/>
  <polygon class="fil0" points="535.24,1156.69 535.24,635.25 535.24,435.22 310.87,435.22 310.87,1156.69 310.87,1357.01 535.24,1357.01 535.24,1356.73 811.42,1356.73 811.42,1156.69 "/>
  <polygon class="fil0" points="841.23,635.25 841.23,1156.69 1065.59,1062.49 1065.59,635.25 1357.01,635.25 1581.38,635.25 1581.38,435.22 1581.38,320.64 1357.01,200.04 1357.01,435.22 1065.59,435.22 841.23,435.22 "/>
 </g>
</svg>
